
<svg xmlns="http://www.w3.org/2000/svg" width="24" height="24" viewBox="0 0 24 24" fill="currentColor">
  <path d="M15.07 2H8.93C3.33 2 2 3.33 2 8.93V15.07C2 20.67 3.33 22 8.93 22H15.07C20.67 22 22 20.67 22 15.07V8.93C22 3.33 20.67 2 15.07 2ZM18.24 16.23H16.68C16.12 16.23 15.94 15.73 14.94 14.73C14.03 13.84 13.67 13.71 13.43 13.71C13.1 13.71 13.01 13.79 13.01 14.25V15.7C13.01 16.01 12.91 16.23 11.81 16.23C10.89 16.21 9.99 15.94 9.19 15.46C8.39 14.97 7.71 14.29 7.21 13.47C6.06 12.01 5.26 10.29 4.88 8.44C4.88 8.19 4.97 7.97 5.46 7.97H7.02C7.35 7.97 7.47 8.15 7.6 8.51C8.17 10.29 9.14 11.86 9.71 11.86C9.92 11.86 10.01 11.78 10.01 11.26V9.34C9.96 8.52 9.52 8.44 9.52 8.13C9.52 7.97 9.66 7.82 9.87 7.82H12.13C12.41 7.82 12.5 7.97 12.5 8.3V10.77C12.5 11.04 12.61 11.14 12.69 11.14C12.9 11.14 13.08 11.04 13.44 10.68C14.11 9.91 14.66 9.01 15.06 8.03C15.1 7.94 15.17 7.86 15.25 7.81C15.33 7.76 15.42 7.73 15.52 7.74H17.08C17.45 7.74 17.54 7.94 17.45 8.24C16.99 9.36 15.34 11.7 15.34 11.7C15.21 11.93 15.16 12.04 15.34 12.27C15.47 12.44 15.91 12.82 16.2 13.17C16.8 13.82 17.27 14.6 17.59 15.44C17.7 15.76 17.54 16.23 17.09 16.23H18.24Z"/>
</svg>
